<svg xmlns="http://www.w3.org/2000/svg" xmlns:xlink="http://www.w3.org/1999/xlink" xmlns:serif="http://www.serif.com/" version="1.1" xml:space="preserve" style="fill-rule:evenodd;clip-rule:evenodd;stroke-linejoin:round;stroke-miterlimit:2;" viewBox="392.25 471.67 515.49 285.07">     <g transform="matrix(1.02779,0,0,1.02779,-18.0626,15.0662)">         <g>             <g transform="matrix(5.51393,0,0,5.51393,-2169.25,-3600.94)">                 <path d="M483.984,756.154L478.875,756.154L470.222,766.135L470.222,756.154L465.815,756.154L465.815,777.228L470.222,777.228L470.222,771.025L473.234,767.611L479.195,777.228L484.239,777.228L476.396,764.772L483.984,756.154Z" style="fill:rgb(24,66,135);"/>             </g>             <g transform="matrix(5.51393,0,0,5.51393,-2169.25,-3609.57)">                 <path d="M491.806,775.887C491.21,775.887 490.785,775.739 490.529,775.44C490.274,775.142 490.146,774.621 490.146,773.876L490.146,755.835L485.771,755.835L485.771,774.354C485.771,776.015 486.128,777.223 486.841,777.979C487.554,778.734 488.688,779.112 490.242,779.112C490.773,779.112 491.312,779.053 491.854,778.937C492.397,778.819 492.849,778.655 493.211,778.442L493.595,775.568C493.233,775.675 492.935,775.754 492.7,775.807C492.466,775.86 492.168,775.887 491.806,775.887" style="fill:rgb(24,66,135);"/>             </g>             <g transform="matrix(5.51393,0,0,5.51393,-2169.25,-3571.01)">                 <path d="M505.568,764.424C505.568,765.17 505.472,765.813 505.281,766.356C505.089,766.899 504.828,767.341 504.498,767.681C504.168,768.022 503.79,768.272 503.365,768.432C502.939,768.591 502.503,768.671 502.056,768.671C501.098,768.671 500.363,768.432 499.852,767.953C499.342,767.473 499.086,766.617 499.086,765.382L499.086,755.835L494.712,755.835L494.712,766.436C494.712,767.777 494.962,768.868 495.462,769.709C495.962,770.55 496.638,771.161 497.489,771.545C498.341,771.928 499.299,772.12 500.363,772.12C501.661,772.12 502.774,771.869 503.7,771.369C504.626,770.869 505.355,770.087 505.887,769.022L506.047,771.8L509.943,771.8L509.943,755.835L505.568,755.835L505.568,764.424Z" style="fill:rgb(24,66,135);"/>             </g>             <g transform="matrix(5.51393,0,0,5.51393,-2169.25,-3574.53)">                 <path d="M535.431,756.793C534.569,756.367 533.616,756.154 532.573,756.154C531.849,756.154 531.136,756.271 530.434,756.506C529.731,756.74 529.093,757.091 528.518,757.559C527.943,758.028 527.485,758.613 527.145,759.315C526.676,758.273 525.979,757.485 525.054,756.953C524.127,756.421 523.09,756.154 521.94,756.154C520.812,756.154 519.785,756.421 518.859,756.953C517.933,757.485 517.204,758.283 516.672,759.347L516.512,756.473L512.585,756.473L512.585,772.439L516.959,772.439L516.959,763.977C516.959,762.934 517.135,762.093 517.486,761.455C517.837,760.816 518.284,760.348 518.827,760.05C519.37,759.752 519.918,759.603 520.472,759.603C521.28,759.603 521.945,759.848 522.467,760.337C522.988,760.827 523.249,761.657 523.249,762.827L523.249,772.439L527.624,772.439L527.624,763.849C527.624,762.913 527.778,762.131 528.087,761.502C528.395,760.875 528.822,760.401 529.364,760.082C529.907,759.762 530.498,759.603 531.136,759.603C531.945,759.603 532.605,759.848 533.116,760.337C533.627,760.827 533.882,761.657 533.882,762.827L533.882,772.439L538.225,772.439L538.257,761.966C538.278,760.646 538.028,759.56 537.507,758.709C536.984,757.857 536.293,757.219 535.431,756.793" style="fill:rgb(24,66,135);"/>             </g>             <g transform="matrix(5.51393,0,0,5.51393,-2169.25,-3537.56)">                 <path d="M551.396,761.439C550.725,762.28 549.805,762.7 548.634,762.7C547.889,762.7 547.234,762.503 546.671,762.109C546.106,761.716 545.675,761.146 545.377,760.401C545.079,759.656 544.93,758.773 544.93,757.751C544.93,756.708 545.09,755.819 545.409,755.085C545.729,754.35 546.17,753.787 546.735,753.392C547.298,752.999 547.953,752.802 548.698,752.802C549.868,752.802 550.778,753.223 551.428,754.063C552.077,754.904 552.402,756.133 552.402,757.751C552.402,759.369 552.066,760.598 551.396,761.439ZM555.898,753.265C555.312,752.041 554.509,751.099 553.488,750.439C552.466,749.779 551.305,749.449 550.007,749.449C549.007,749.449 548.102,749.657 547.293,750.072C546.484,750.487 545.819,751.057 545.297,751.78C545.046,752.129 544.835,752.503 544.66,752.901L544.483,749.768L540.556,749.768L540.556,772.439L544.93,772.439L544.93,762.953C545.29,763.686 545.779,764.33 546.415,764.872C547.341,765.659 548.506,766.053 549.911,766.053C551.231,766.053 552.407,765.723 553.439,765.063C554.472,764.404 555.286,763.451 555.882,762.205C556.478,760.96 556.776,759.464 556.776,757.719C556.776,755.974 556.484,754.489 555.898,753.265" style="fill:rgb(24,66,135);"/>             </g>             <g transform="matrix(-5.36743,-1.26258,-1.26258,5.36743,4411.69,-3071.83)">                 <path d="M509.868,789.957L515.914,789.957C515.917,789.838 515.915,789.721 515.911,789.6C515.841,787.941 515.179,786.445 514.132,785.31L509.868,789.957Z" style="fill:rgb(5,77,176);"/>             </g>             <g transform="matrix(5.51393,0,0,5.51393,-2169.25,-3800.67)">                 <path d="M523.619,786.414C522.624,789.991 518.888,792.092 515.256,791.115C512.027,790.245 509.993,787.198 510.273,783.959L517.143,785.576C517.179,785.583 517.216,785.587 517.252,785.587C517.399,785.587 517.541,785.518 517.632,785.399C517.745,785.246 517.758,785.042 517.667,784.879L514.043,778.424C515.483,777.717 517.181,777.513 518.861,777.968C522.517,778.959 524.644,782.731 523.619,786.414" style="fill:rgb(5,77,176);"/>             </g>             <g transform="matrix(5.51393,0,0,5.51393,-2169.25,-3832.19)">                 <path d="M508.988,789.375C508.083,792.004 505.292,793.514 502.595,792.759C499.833,791.985 498.174,789.123 498.877,786.342C499.591,783.506 502.494,781.808 505.345,782.56C505.949,782.72 506.499,782.969 506.985,783.291L503.452,787.354C503.342,787.48 503.308,787.655 503.357,787.813C503.409,787.971 503.54,788.093 503.702,788.132L508.988,789.375Z" style="fill:rgb(66,203,237);"/>             </g>             <g transform="matrix(5.51393,0,0,5.51393,-2169.25,-3848.62)">                 <path d="M509.22,791.431L504.688,790.365L507.725,786.871C508.912,788.02 509.498,789.693 509.22,791.431" style="fill:rgb(97,202,229);"/>             </g>             <g transform="matrix(0.54724,-5.4867,-5.4867,-0.54724,4718.24,3715.58)">                 <path d="M509.413,791.007C508.95,791.804 508.738,792.748 508.885,793.692C508.965,794.211 509.15,794.697 509.413,795.131L512.341,793.058L509.413,791.007Z" style="fill:rgb(105,194,145);"/>             </g>             <g transform="matrix(5.51393,0,0,5.51393,-2169.25,-3927.32)">                 <path d="M514.912,797.966C514.683,798.888 514.121,799.67 513.385,800.221L511.313,796.532C511.237,796.399 511.102,796.308 510.947,796.292C510.791,796.277 510.641,796.338 510.54,796.454L507.771,799.64C506.916,798.625 506.541,797.212 506.906,795.868C507.501,793.674 509.837,792.355 512.017,792.979C514.133,793.587 515.441,795.843 514.912,797.966" style="fill:rgb(94,209,145);"/>             </g>         </g>     </g> </svg>